<?xml version="1.0" standalone="no"?>
<!DOCTYPE svg PUBLIC "-//W3C//DTD SVG 20010904//EN"
 "http://www.w3.org/TR/2001/REC-SVG-20010904/DTD/svg10.dtd">
<svg version="1.0" xmlns="http://www.w3.org/2000/svg"
 width="3000.000000pt" height="3000.000000pt" viewBox="0 0 3000.000000 3000.000000"
 preserveAspectRatio="xMidYMid meet">

<g transform="translate(0.000000,3000.000000) scale(0.100000,-0.100000)"
fill="#000000" stroke="none">
<path d="M6410 16400 c-461 -57 -894 -283 -1185 -618 -372 -427 -532 -993
-436 -1542 117 -666 589 -1217 1227 -1430 392 -130 794 -131 1184 -1 412 138
764 422 988 798 l51 85 -232 117 c-128 65 -281 144 -340 175 -60 32 -109 56
-110 55 -1 -2 -28 -43 -60 -91 -164 -245 -423 -411 -719 -458 -112 -18 -330
-8 -438 20 -375 99 -667 383 -774 753 -152 525 127 1097 637 1301 155 62 208
71 407 70 157 0 197 -3 262 -21 235 -66 440 -202 577 -383 33 -44 64 -87 69
-96 7 -13 50 5 288 124 153 77 307 156 341 174 l63 34 -47 75 c-276 446 -732
751 -1258 844 -108 19 -391 27 -495 15z"/>
<path d="M18520 14555 l0 -1835 1415 0 1415 0 0 335 0 335 -1027 2 -1028 3 -3
393 -2 392 835 0 835 0 0 355 0 355 -835 0 -835 0 2 413 3 412 943 3 942 2 0
335 0 335 -1330 0 -1330 0 0 -1835z"/>
<path d="M21850 14550 l0 -1830 350 0 350 0 0 1262 0 1262 83 -113 c45 -63
460 -629 923 -1260 l841 -1146 342 -3 341 -2 0 1830 0 1830 -340 0 -340 0 -2
-1136 -3 -1135 -813 1135 -814 1136 -459 0 -459 0 0 -1830z"/>
<path d="M8730 14545 l0 -1825 400 0 400 0 0 1825 0 1825 -400 0 -400 0 0
-1825z"/>
<path d="M13790 14545 l0 -1825 400 0 400 0 0 1825 0 1825 -400 0 -400 0 0
-1825z"/>
<path d="M15220 16035 l0 -335 900 0 c495 0 900 -2 900 -5 0 -2 -262 -318
-583 -702 -321 -384 -760 -909 -975 -1167 l-392 -469 0 -319 0 -318 1535 0
1535 0 0 335 0 335 -1000 0 c-550 0 -1000 3 -1000 8 1 4 439 531 975 1172
l974 1165 1 318 0 317 -1435 0 -1435 0 0 -335z"/>
</g>
</svg>
